# xmcd
#
# Track frame offsets: 
#        150
#        50217
#        73610
#        98518
#        121917
#        148120
#        172544
#        193105
#        218966
#        242585
#        259260
#        283756
#        305927
#        327446
#
# Disc length: 4691 seconds
#
# Revision: 2
# Processed by: cddbd v1.5.2PL0 Copyright (c) Steve Scherf et al.
# Submitted via: ExactAudioCopyFreeDBPlugin 1.0
#
DISCID=d912510e
DTITLE=Various Artist - G Lounge Milano Vol.2 - CD01 S0ft Side
DYEAR=2005
DGENRE=Chillout
TTITLE0=Bliss - Manvantara
TTITLE1=Fabio Nobile - Fly To The Moon
TTITLE2=Hird - Getting Closer
TTITLE3=Parov Stelar - KissKiss
TTITLE4=Brent Laurence feat. Darrius Willrich - This Life (Monodeluxe 
TTITLE4=Remix)
TTITLE5=Blaze - Sapporo
TTITLE6=Marco Di Marco Feat. Nathan Haines - Take Off (Nicola Conte Ca
TTITLE6=mpis Idea Version)
TTITLE7=Cirque Du Soleil - Emballa (Llorca Remix)
TTITLE8=John Dahlback - Winterfall
TTITLE9=Phonique - For The Time Being feat. Erlend Oye
TTITLE10=Character - Free Your Souls
TTITLE11=Alex Cortiz - Magic Touch
TTITLE12=S. and M. Pres. Eminence feat. Syreeta Neal - Slave To The Pois
TTITLE12=on (Markus Enchson Audiobuff Remix)
TTITLE13=Luv City - Blue Moon
EXTD=YEAR: 2005
EXTT0=
EXTT1=
EXTT2=
EXTT3=
EXTT4=
EXTT5=
EXTT6=
EXTT7=
EXTT8=
EXTT9=
EXTT10=
EXTT11=
EXTT12=
EXTT13=
PLAYORDER=
